<?xml version="1.0" standalone="no"?>
<!DOCTYPE svg PUBLIC "-//W3C//DTD SVG 20010904//EN"
 "http://www.w3.org/TR/2001/REC-SVG-20010904/DTD/svg10.dtd">
<svg version="1.0" xmlns="http://www.w3.org/2000/svg"
 width="650.000000pt" height="650.000000pt" viewBox="0 0 650.000000 650.000000"
 preserveAspectRatio="xMidYMid meet">
<metadata>
Created by potrace 1.14, written by Peter Selinger 2001-2017
</metadata>
<g transform="translate(0.000000,650.000000) scale(0.100000,-0.100000)"
fill="#000000" stroke="none">
<path d="M2620 6080 c0 -3 -16 -6 -36 -7 -51 -3 -242 -42 -278 -57 -17 -7 -39
-12 -49 -10 -9 1 -17 -1 -17 -5 0 -4 -18 -13 -39 -20 -22 -6 -52 -18 -67 -26
-15 -8 -31 -12 -36 -9 -4 3 -8 2 -8 -3 0 -12 -51 -33 -63 -26 -6 4 -7 1 -2 -7
6 -10 3 -12 -13 -8 -16 4 -19 2 -15 -10 5 -11 2 -14 -10 -9 -9 3 -17 3 -17 -1
0 -4 -28 -25 -63 -47 -34 -22 -65 -44 -68 -49 -4 -4 -12 -5 -19 -1 -9 5 -11 4
-6 -3 7 -11 -6 -17 -27 -13 -5 1 -6 -3 -3 -8 3 -5 -20 -28 -52 -52 -31 -24
-64 -50 -72 -59 -29 -32 -87 -70 -95 -62 -5 4 -6 2 -2 -3 3 -6 -15 -28 -41
-50 -94 -80 -272 -269 -272 -288 0 -5 -5 -5 -12 -1 -7 4 -8 3 -4 -4 4 -7 2
-17 -4 -24 -29 -34 -106 -159 -133 -217 -17 -36 -35 -67 -39 -69 -4 -2 -4 -10
-1 -19 4 -9 -1 -21 -12 -29 -11 -8 -13 -14 -6 -14 7 0 9 -5 4 -12 -4 -7 -8
-17 -9 -23 -5 -28 -13 -65 -24 -110 -7 -27 -14 -63 -16 -80 -2 -16 -6 -37 -9
-45 -2 -8 -7 -33 -11 -55 -3 -22 -11 -46 -17 -54 -7 -8 -7 -12 -2 -9 7 4 5
-18 -4 -57 -8 -35 -18 -62 -22 -59 -4 2 -11 0 -14 -6 -4 -6 -1 -9 7 -8 7 2 12
-1 11 -7 -1 -5 -4 -30 -8 -55 -4 -25 -9 -52 -10 -60 -2 -8 -4 -19 -4 -23 -1
-5 -7 -5 -13 -1 -10 6 -10 4 0 -7 16 -17 16 -46 0 -53 -9 -4 -10 -8 -2 -11 7
-4 8 -22 3 -58 -10 -62 -17 -165 -18 -265 -1 -56 -4 -71 -13 -66 -9 5 -9 2 1
-9 11 -14 11 -20 0 -34 -10 -11 -10 -14 -1 -9 6 4 12 2 12 -3 0 -6 -6 -11 -12
-11 -10 0 -9 -3 1 -9 7 -5 10 -14 7 -20 -4 -6 -11 -9 -16 -6 -4 3 -7 -2 -6
-11 1 -8 7 -19 14 -23 7 -4 10 -38 9 -95 -1 -48 0 -89 3 -91 11 -7 5 -100 -7
-100 -6 0 -15 -3 -19 -7 -3 -4 3 -6 15 -3 15 3 21 -1 21 -15 0 -10 -6 -21 -12
-23 -8 -3 -5 -6 6 -6 13 -1 17 -6 13 -21 -3 -11 -2 -20 2 -20 4 0 8 -6 8 -12
3 -37 10 -75 18 -88 6 -10 4 -12 -11 -7 -17 6 -17 6 -2 -6 9 -7 18 -26 21 -42
3 -17 15 -64 26 -105 23 -83 25 -102 11 -80 -6 9 -10 10 -10 3 0 -7 7 -16 17
-21 10 -6 14 -16 10 -26 -4 -9 -3 -16 2 -16 14 0 19 -48 7 -60 -8 -8 -7 -11 3
-8 7 2 15 -4 17 -12 2 -8 12 -49 24 -89 11 -41 18 -84 14 -95 -4 -15 -3 -17 4
-7 7 9 13 2 24 -30 8 -24 14 -51 13 -59 0 -8 2 -17 5 -20 4 -3 18 -35 32 -71
18 -47 22 -72 16 -88 -8 -22 -7 -22 9 -10 15 12 16 12 10 -3 -3 -9 1 -22 9
-29 9 -7 13 -21 10 -31 -2 -11 1 -21 9 -24 11 -5 30 -57 26 -76 0 -5 4 -8 10
-8 5 0 8 -4 5 -9 -3 -5 1 -14 10 -21 8 -7 13 -19 10 -26 -3 -7 -1 -16 5 -19 5
-4 7 -11 4 -16 -4 -5 -1 -9 5 -9 6 0 8 -4 5 -10 -3 -5 -1 -10 6 -10 8 0 7 -5
-2 -17 -9 -10 -9 -14 -2 -10 13 8 37 -26 26 -36 -3 -4 2 -9 11 -13 9 -3 16
-14 16 -23 0 -9 7 -25 15 -35 8 -10 12 -23 9 -27 -3 -5 0 -9 5 -9 6 0 11 -5
11 -11 0 -6 -7 -8 -16 -5 -8 3 -12 2 -9 -4 3 -6 12 -10 19 -10 12 0 42 -56 48
-90 2 -8 7 -18 13 -22 6 -5 5 -12 -3 -20 -6 -6 -12 -17 -12 -23 0 -5 5 -2 11
8 6 9 15 15 20 11 6 -4 6 -11 -2 -20 -10 -12 -9 -17 0 -27 10 -9 11 -8 6 6
-13 32 10 17 28 -19 11 -23 13 -33 5 -29 -7 4 -2 -2 11 -13 16 -13 22 -25 18
-36 -4 -11 -3 -15 4 -11 6 4 13 -2 16 -14 3 -12 10 -21 15 -21 5 0 6 -4 3 -10
-3 -5 -1 -10 5 -10 6 0 9 -4 6 -9 -3 -5 1 -11 8 -14 8 -3 20 -16 26 -28 10
-17 9 -20 -2 -14 -7 3 -1 -3 15 -15 15 -12 27 -28 27 -35 0 -7 7 -16 16 -19 8
-3 12 -10 9 -16 -3 -5 -1 -10 5 -10 6 0 9 -4 6 -9 -3 -5 3 -11 14 -14 14 -4
18 -10 13 -23 -4 -10 -2 -15 4 -11 16 10 97 -78 91 -100 -4 -13 0 -19 13 -19
15 0 16 3 6 16 -11 13 -10 13 6 1 11 -9 16 -22 12 -35 -3 -12 -2 -15 1 -8 8
18 27 15 20 -4 -3 -8 -2 -12 4 -9 5 3 19 1 30 -5 15 -8 19 -18 16 -33 -3 -12
-3 -16 0 -10 6 14 31 5 57 -21 8 -8 29 -23 46 -34 19 -12 28 -23 22 -26 -6 -4
-11 -13 -11 -19 0 -9 2 -9 8 0 9 14 52 6 52 -9 0 -5 -4 -6 -10 -3 -6 4 -7 -1
-3 -11 4 -11 8 -13 11 -6 4 14 32 16 32 2 0 -5 8 -10 18 -10 14 0 15 -2 2 -10
-12 -8 -11 -10 7 -10 22 0 125 -57 131 -72 2 -4 12 -8 23 -8 10 0 19 -5 19
-11 0 -5 5 -7 10 -4 15 9 24 -23 11 -39 -9 -11 -9 -16 0 -22 7 -4 10 -3 6 2
-3 5 1 17 8 27 12 16 14 16 37 -3 14 -10 28 -16 32 -13 3 3 6 1 6 -6 0 -7 4
-10 9 -6 5 3 15 0 23 -7 7 -7 20 -14 28 -16 8 -2 18 -9 22 -15 4 -7 8 -8 8 -4
0 4 9 3 20 -3 11 -6 18 -15 15 -20 -3 -4 5 -6 17 -2 17 4 20 2 16 -15 -3 -11
0 -20 6 -20 6 0 20 -4 31 -7 15 -5 15 -4 -2 5 -13 7 -23 16 -23 21 0 11 41
-11 58 -31 8 -9 10 -10 6 -2 -4 9 9 5 37 -10 24 -13 46 -27 47 -32 2 -4 8 -5
13 -1 5 3 9 0 9 -6 0 -6 4 -9 9 -5 18 11 119 -54 105 -67 -1 -2 6 -4 17 -4 21
0 21 0 -28 33 -16 11 -14 12 12 6 17 -3 32 -9 35 -13 3 -4 13 -6 22 -4 10 1
21 -3 25 -8 4 -7 1 -8 -7 -3 -9 5 -11 4 -6 -4 4 -6 13 -8 19 -4 16 10 31 10
38 1 3 -5 20 -10 37 -11 18 -1 30 -7 28 -13 -2 -6 2 -11 10 -11 7 0 11 4 8 9
-3 4 2 5 10 2 9 -3 16 -10 16 -15 0 -5 5 -9 11 -9 5 0 7 5 3 12 -5 7 -3 8 7 2
8 -4 20 -9 28 -11 8 -1 17 -7 21 -14 5 -6 13 -8 20 -4 9 6 11 4 5 -5 -6 -10
-4 -12 7 -7 26 9 29 -4 5 -25 -22 -19 -22 -19 7 -1 41 25 63 26 85 4 11 -11
18 -21 16 -23 -2 -2 5 -4 16 -4 18 0 18 2 5 12 -9 6 -13 14 -9 18 4 4 0 4 -10
0 -9 -3 -17 -2 -17 3 0 14 231 10 257 -5 12 -6 25 -12 30 -12 4 1 -2 6 -15 14
-20 11 -9 12 84 12 89 0 111 -3 125 -17 10 -10 16 -19 14 -21 -2 -2 5 -4 16
-4 18 0 18 2 5 12 -9 6 -13 14 -9 18 4 4 0 4 -10 0 -9 -3 -17 -2 -17 2 0 14
232 11 257 -3 12 -7 25 -13 30 -13 4 1 -3 7 -15 14 -21 11 -11 13 76 12 72 -1
104 -5 118 -16 18 -14 18 -14 5 3 -13 16 -13 20 0 28 19 12 25 11 39 -6 15
-18 -1 -20 -18 -3 -9 9 -12 9 -12 0 0 -7 5 -12 11 -12 5 0 7 -5 4 -10 -8 -13
18 -8 27 5 4 5 2 15 -3 21 -14 17 25 37 53 28 12 -4 18 -2 14 4 -3 5 5 12 18
14 19 4 23 1 19 -11 -3 -10 1 -8 9 4 7 11 24 21 36 23 13 2 46 17 73 33 53 31
64 35 54 20 -3 -5 -1 -13 5 -16 6 -4 9 -3 8 2 -8 30 35 73 66 65 5 -2 6 4 2
13 -4 11 -2 15 6 13 19 -7 18 -47 -1 -58 -9 -5 -11 -10 -4 -10 24 0 39 46 21
67 -6 8 -8 16 -4 20 3 4 12 -1 19 -11 12 -16 14 -16 26 -2 7 9 17 13 22 10 5
-3 9 0 9 5 0 16 -11 14 -32 -6 -22 -20 -24 -1 -2 22 10 9 24 13 38 10 15 -5
17 -4 7 3 -11 8 -10 12 8 21 12 7 26 9 31 6 6 -3 10 0 10 8 0 11 7 13 22 9 13
-3 19 -1 15 5 -4 6 5 15 19 22 32 14 37 14 29 -2 -4 -6 3 -1 14 13 18 21 22
23 31 10 9 -13 10 -13 10 0 0 20 105 69 131 63 10 -3 16 -10 12 -16 -4 -6 -1
-7 7 -2 10 6 10 11 -4 20 -15 11 -13 15 21 35 20 12 32 15 27 8 -5 -8 3 0 18
17 15 16 28 25 28 19 0 -6 7 -11 15 -11 9 0 11 4 6 11 -6 7 5 25 31 51 23 22
38 35 35 29 -3 -6 0 -11 8 -11 9 0 11 6 6 16 -8 16 22 55 33 44 3 -4 6 3 6 14
0 11 9 28 19 37 11 10 29 38 41 62 18 39 23 43 40 34 14 -7 20 -7 20 0 0 5 -7
10 -15 10 -8 0 -15 5 -15 10 0 6 5 10 11 10 5 0 7 5 4 10 -3 5 -1 10 5 10 6 0
8 4 5 10 -3 5 -1 10 5 10 6 0 8 5 5 10 -3 6 -1 10 4 10 6 0 11 5 11 12 0 6 12
41 27 77 14 36 26 72 26 79 0 6 4 12 9 12 5 0 6 5 3 10 -4 6 -1 18 7 27 11 14
11 16 -2 8 -12 -7 -13 -6 -4 6 6 8 11 25 12 38 1 26 20 43 36 34 5 -3 6 -1 2
5 -4 6 -13 9 -21 6 -10 -4 -13 2 -11 23 1 15 6 34 10 42 6 10 5 12 -2 7 -8 -5
-10 -2 -6 8 3 9 10 14 14 11 5 -3 12 -1 15 5 4 6 1 9 -6 8 -6 -2 -13 10 -16
25 -2 17 0 26 6 23 5 -4 13 -2 16 4 4 6 1 9 -7 8 -9 -2 -13 13 -15 55 -1 31 2
55 7 52 5 -3 12 -1 15 5 4 6 1 9 -5 8 -17 -4 -22 33 -7 51 9 12 9 13 -1 7 -9
-5 -12 0 -10 21 1 16 -1 34 -6 41 -4 7 -2 12 5 12 10 0 10 3 1 12 -14 14 4 52
20 42 7 -4 8 -3 4 4 -4 6 -12 9 -20 6 -7 -3 -13 2 -13 11 0 8 5 15 10 15 5 0
3 8 -4 17 -12 15 -12 16 6 10 18 -6 18 -6 3 6 -12 9 -14 18 -7 30 7 11 6 17 0
17 -6 0 -8 7 -5 15 11 28 11 140 0 154 -9 12 -8 13 4 6 12 -7 13 -6 3 6 -10
12 -10 18 0 29 9 10 9 11 0 6 -9 -5 -13 2 -15 21 -1 33 -3 43 -10 63 -20 55
-25 90 -15 90 9 0 9 2 0 8 -10 6 -22 60 -36 155 -2 15 0 27 6 27 7 0 7 4 -1
12 -7 7 -8 17 -1 30 5 10 6 18 1 18 -11 0 -2 61 12 79 8 12 8 13 -2 7 -10 -6
-11 -1 -7 18 3 14 7 37 10 51 4 17 10 23 18 18 8 -4 7 -1 -2 10 -13 16 -8 22
13 18 5 -1 4 4 -2 12 -9 10 -9 17 1 27 9 10 9 11 0 6 -16 -9 -17 -10 8 54 11
30 22 66 25 80 10 51 26 90 35 85 5 -4 9 -2 9 4 0 5 -5 11 -12 13 -7 3 -8 9
-3 19 10 14 11 19 13 52 1 10 6 16 11 13 4 -3 6 6 3 19 -4 21 -1 24 14 19 17
-6 17 -5 -1 10 -13 11 -16 19 -9 22 7 3 10 14 7 25 -3 11 2 28 13 40 13 14 14
18 3 14 -12 -4 -14 3 -11 35 2 22 8 38 12 35 5 -3 12 -1 15 5 4 6 1 9 -6 8 -6
-2 -13 10 -16 25 -2 17 0 26 6 23 5 -4 13 -2 16 4 4 6 1 9 -7 8 -9 -2 -13 11
-14 44 -1 34 2 46 10 41 7 -5 7 -2 -1 8 -7 8 -12 24 -12 34 0 11 -2 35 -5 53
-3 18 -6 56 -8 86 -2 30 -6 52 -10 49 -5 -2 -8 6 -8 19 0 13 -4 30 -10 38 -6
9 -5 17 3 22 8 5 7 8 -4 8 -14 0 -25 19 -28 46 0 2 -6 11 -13 19 -38 42 -120
155 -113 155 4 0 -1 7 -9 16 -22 22 -21 55 2 48 15 -5 15 -5 0 5 -13 9 -16 27
-14 101 1 49 -1 90 -4 90 -3 0 -7 16 -8 36 -2 27 0 34 10 28 10 -6 10 -5 2 7
-18 23 -46 118 -40 135 3 8 2 13 -3 9 -11 -6 -32 52 -34 99 -1 19 -6 32 -10
29 -12 -7 -4 31 8 39 6 5 5 8 -2 8 -7 0 -13 7 -13 15 0 8 6 15 13 15 9 0 9 2
1 8 -15 9 -23 112 -9 112 6 0 3 4 -5 10 -8 5 -11 12 -7 16 4 4 2 13 -4 21 -6
7 -8 13 -5 13 4 0 2 8 -3 18 -8 15 -3 17 40 19 33 1 47 -2 43 -9 -5 -7 -2 -8
7 -3 22 14 50 13 45 -1 -7 -19 11 -27 31 -14 15 9 14 10 -7 5 -24 -6 -24 -5
-6 9 22 18 51 22 41 6 -3 -6 1 -7 10 -3 12 4 13 8 5 13 -6 4 -11 16 -10 26 4
31 1 38 -25 68 -13 16 -22 33 -18 39 3 5 1 7 -5 4 -5 -4 -22 8 -37 25 -14 18
-33 41 -41 51 -13 15 -13 21 -2 35 11 15 11 15 -4 4 -14 -11 -19 -10 -32 9 -8
12 -12 27 -9 33 3 6 3 8 -2 4 -13 -12 -34 12 -28 30 3 9 3 14 -2 10 -4 -4 -40
23 -80 60 -66 62 -162 123 -192 122 -7 0 -13 5 -13 11 0 5 -4 8 -9 5 -4 -3
-23 -1 -42 5 -49 15 -72 20 -86 21 -7 1 -13 5 -13 10 0 5 -4 7 -9 4 -5 -3 -30
1 -57 8 -27 8 -66 17 -87 21 -21 3 -35 10 -32 15 4 6 -3 6 -19 0 -16 -6 -27
-6 -31 1 -4 5 -11 7 -16 4 -5 -4 -9 -3 -9 2 0 4 -24 8 -53 8 -65 0 -140 14
-149 29 -6 8 -8 7 -8 -1 0 -10 -8 -9 -32 1 -18 8 -60 25 -93 37 -33 13 -62 25
-65 28 -5 6 -31 16 -170 67 -74 27 -177 56 -202 57 -10 1 -18 4 -18 7 0 3 -8
6 -17 7 -10 0 -47 6 -83 12 -36 6 -72 12 -80 12 -8 0 -22 3 -30 6 -8 2 -49 5
-90 6 -41 1 -81 6 -87 10 -8 5 -13 4 -13 -3 0 -6 -5 -8 -12 -4 -14 9 -788 13
-788 4z m-1740 -2450 c0 -5 -5 -10 -11 -10 -5 0 -7 5 -4 10 3 6 8 10 11 10 2
0 4 -4 4 -10z"/>
<path d="M4830 5781 c0 -6 4 -13 10 -16 6 -3 7 1 4 9 -7 18 -14 21 -14 7z"/>
<path d="M5326 5135 c4 -8 8 -15 10 -15 2 0 4 7 4 15 0 8 -4 15 -10 15 -5 0
-7 -7 -4 -15z"/>
<path d="M5412 5133 c2 -9 11 -17 21 -19 9 -1 15 2 11 7 -3 5 -10 6 -16 3 -7
-5 -9 -1 -5 9 3 10 2 17 -4 17 -6 0 -9 -7 -7 -17z"/>
<path d="M966 4722 c-3 -5 1 -9 9 -9 8 0 12 4 9 9 -3 4 -7 8 -9 8 -2 0 -6 -4
-9 -8z"/>
<path d="M895 4331 c-3 -5 -2 -12 3 -15 5 -3 9 1 9 9 0 17 -3 19 -12 6z"/>
<path d="M870 4100 c0 -5 5 -10 11 -10 5 0 7 5 4 10 -3 6 -8 10 -11 10 -2 0
-4 -4 -4 -10z"/>
<path d="M855 3960 c3 -5 8 -10 11 -10 2 0 4 5 4 10 0 6 -5 10 -11 10 -5 0 -7
-4 -4 -10z"/>
<path d="M5640 3866 c0 -2 8 -10 18 -17 15 -13 16 -12 3 4 -13 16 -21 21 -21
13z"/>
<path d="M5610 3325 c0 -7 30 -13 34 -7 3 4 -4 9 -15 9 -10 1 -19 0 -19 -2z"/>
<path d="M5590 3181 c0 -6 4 -12 8 -15 5 -3 9 1 9 9 0 8 -4 15 -9 15 -4 0 -8
-4 -8 -9z"/>
<path d="M890 3159 c0 -5 5 -7 10 -4 6 3 10 8 10 11 0 2 -4 4 -10 4 -5 0 -10
-5 -10 -11z"/>
<path d="M5555 3111 c-3 -5 -2 -12 3 -15 5 -3 9 1 9 9 0 17 -3 19 -12 6z"/>
<path d="M916 3022 c-3 -5 1 -9 9 -9 8 0 12 4 9 9 -3 4 -7 8 -9 8 -2 0 -6 -4
-9 -8z"/>
<path d="M975 2789 c-4 -6 -5 -12 -2 -15 2 -3 7 2 10 11 7 17 1 20 -8 4z"/>
<path d="M5513 2685 c0 -8 4 -12 9 -9 5 3 6 10 3 15 -9 13 -12 11 -12 -6z"/>
<path d="M1016 2667 c3 -10 9 -15 12 -12 3 3 0 11 -7 18 -10 9 -11 8 -5 -6z"/>
<path d="M5515 2620 c-3 -5 -1 -10 4 -10 6 0 11 5 11 10 0 6 -2 10 -4 10 -3 0
-8 -4 -11 -10z"/>
<path d="M5530 2521 c0 -6 4 -13 10 -16 6 -3 7 1 4 9 -7 18 -14 21 -14 7z"/>
<path d="M1095 2409 c-4 -6 -5 -12 -2 -15 2 -3 7 2 10 11 7 17 1 20 -8 4z"/>
<path d="M1126 2322 c-3 -5 1 -9 9 -9 8 0 12 4 9 9 -3 4 -7 8 -9 8 -2 0 -6 -4
-9 -8z"/>
<path d="M1100 2306 c0 -2 8 -10 18 -17 15 -13 16 -12 3 4 -13 16 -21 21 -21
13z"/>
<path d="M1180 2105 c0 -2 6 -8 13 -14 10 -8 14 -7 14 2 0 8 -6 14 -14 14 -7
0 -13 -1 -13 -2z"/>
<path d="M1220 2076 c0 -2 7 -7 16 -10 8 -3 12 -2 9 4 -6 10 -25 14 -25 6z"/>
<path d="M1276 1921 c-3 -5 2 -15 12 -22 15 -12 16 -12 5 2 -7 9 -10 19 -6 22
3 4 4 7 0 7 -3 0 -8 -4 -11 -9z"/>
<path d="M1320 1851 c0 -6 4 -13 10 -16 6 -3 7 1 4 9 -7 18 -14 21 -14 7z"/>
<path d="M1353 1765 c0 -8 4 -12 9 -9 5 3 6 10 3 15 -9 13 -12 11 -12 -6z"/>
<path d="M1370 1739 c0 -5 5 -7 10 -4 6 3 10 8 10 11 0 2 -4 4 -10 4 -5 0 -10
-5 -10 -11z"/>
<path d="M1446 1538 c3 -5 10 -6 15 -3 13 9 11 12 -6 12 -8 0 -12 -4 -9 -9z"/>
<path d="M1474 1508 c0 -10 3 -18 7 -18 4 0 9 8 11 18 3 10 0 19 -6 19 -7 0
-12 -9 -12 -19z"/>
<path d="M1480 1466 c0 -2 8 -10 18 -17 15 -13 16 -12 3 4 -13 16 -21 21 -21
13z"/>
<path d="M1515 1420 c-3 -5 -1 -10 4 -10 6 0 11 5 11 10 0 6 -2 10 -4 10 -3 0
-8 -4 -11 -10z"/>
<path d="M1557 1393 c3 -7 6 -13 8 -13 2 0 5 6 8 13 3 8 -1 14 -8 14 -7 0 -11
-6 -8 -14z"/>
<path d="M5529 1383 c-13 -16 -12 -17 4 -4 16 13 21 21 13 21 -2 0 -10 -8 -17
-17z"/>
<path d="M1617 1309 c7 -7 15 -10 18 -7 3 3 -2 9 -12 12 -14 6 -15 5 -6 -5z"/>
<path d="M5499 1318 c-5 -18 -6 -38 -1 -34 7 8 12 36 6 36 -2 0 -4 -1 -5 -2z"/>
<path d="M1626 1282 c-3 -5 1 -9 9 -9 8 0 12 4 9 9 -3 4 -7 8 -9 8 -2 0 -6 -4
-9 -8z"/>
<path d="M1729 1197 c6 -8 7 -18 3 -22 -4 -5 -1 -5 6 -1 6 4 12 3 12 -2 0 -6
8 -13 17 -17 11 -4 7 5 -11 24 -30 31 -48 43 -27 18z"/>
<path d="M1726 1138 c3 -5 10 -6 15 -3 13 9 11 12 -6 12 -8 0 -12 -4 -9 -9z"/>
<path d="M5415 1140 c3 -5 8 -10 11 -10 2 0 4 5 4 10 0 6 -5 10 -11 10 -5 0
-7 -4 -4 -10z"/>
<path d="M5354 1053 c-10 -7 -13 -13 -7 -13 7 0 15 5 18 10 4 6 10 8 15 5 5
-3 11 -2 14 3 8 13 -19 10 -40 -5z"/>
<path d="M1897 997 c3 -5 14 -7 24 -4 10 3 20 1 23 -4 2 -5 3 -4 2 2 -1 7 -14
13 -28 13 -15 1 -24 -2 -21 -7z"/>
<path d="M1955 970 c-4 -6 -12 -7 -18 -4 -7 4 -8 3 -4 -1 10 -12 39 -16 32 -5
-3 5 1 11 7 13 9 4 10 6 1 6 -6 1 -15 -4 -18 -9z"/>
<path d="M1977 945 c-4 -8 -3 -16 1 -19 4 -3 9 4 9 15 2 23 -3 25 -10 4z"/>
<path d="M2010 900 c0 -5 5 -10 11 -10 5 0 7 5 4 10 -3 6 -8 10 -11 10 -2 0
-4 -4 -4 -10z"/>
<path d="M2082 864 c-7 -8 -8 -14 -3 -14 10 0 25 19 20 25 -2 1 -10 -3 -17
-11z"/>
<path d="M5173 855 c0 -8 4 -12 9 -9 5 3 6 10 3 15 -9 13 -12 11 -12 -6z"/>
<path d="M2150 830 c0 -5 7 -7 15 -4 8 4 15 8 15 10 0 2 -7 4 -15 4 -8 0 -15
-4 -15 -10z"/>
<path d="M2190 820 c0 -5 5 -10 10 -10 6 0 10 5 10 10 0 6 -4 10 -10 10 -5 0
-10 -4 -10 -10z"/>
<path d="M5110 821 c0 -10 19 -25 25 -20 1 2 -3 10 -11 17 -8 7 -14 8 -14 3z"/>
<path d="M2211 788 c-14 -23 -14 -23 8 -4 22 20 25 26 13 26 -4 0 -13 -10 -21
-22z"/>
<path d="M2236 773 c-6 -14 -5 -15 5 -6 7 7 10 15 7 18 -3 3 -9 -2 -12 -12z"/>
<path d="M5030 779 c0 -5 5 -7 10 -4 6 3 10 8 10 11 0 2 -4 4 -10 4 -5 0 -10
-5 -10 -11z"/>
<path d="M5060 786 c0 -2 8 -10 18 -17 15 -13 16 -12 3 4 -13 16 -21 21 -21
13z"/>
<path d="M2260 766 c0 -2 9 -6 20 -9 11 -3 18 -1 14 4 -5 9 -34 13 -34 5z"/>
<path d="M4995 760 c-4 -6 1 -7 11 -3 13 5 15 3 9 -7 -5 -9 -4 -11 4 -6 6 4 9
12 6 17 -8 12 -22 12 -30 -1z"/>
<path d="M4966 745 c-9 -26 -7 -32 5 -12 6 10 9 21 6 23 -2 3 -7 -2 -11 -11z"/>
<path d="M2366 702 c-3 -5 1 -9 9 -9 8 0 15 4 15 9 0 4 -4 8 -9 8 -6 0 -12 -4
-15 -8z"/>
<path d="M4872 705 c4 -4 0 -14 -10 -22 -16 -12 -16 -13 2 -6 15 5 17 3 11 -8
-5 -8 -4 -11 0 -6 14 12 14 36 2 44 -7 3 -9 3 -5 -2z"/>
<path d="M2397 687 c-3 -8 1 -14 8 -14 7 0 11 6 8 14 -3 7 -6 13 -8 13 -2 0
-5 -6 -8 -13z"/>
<path d="M2445 680 c-16 -7 -17 -9 -3 -9 9 -1 20 4 23 9 7 11 7 11 -20 0z"/>
<path d="M2495 659 c-6 -8 -4 -10 5 -4 10 6 12 4 6 -11 -6 -15 -5 -17 5 -6 9
9 10 15 2 23 -8 8 -13 7 -18 -2z"/>
<path d="M4770 630 c-9 -6 -10 -10 -3 -10 6 0 15 5 18 10 8 12 4 12 -15 0z"/>
<path d="M2532 616 c7 -8 15 -12 17 -11 5 6 -10 25 -20 25 -5 0 -4 -6 3 -14z"/>
<path d="M2605 580 c-3 -6 1 -7 9 -4 18 7 21 14 7 14 -6 0 -13 -4 -16 -10z"/>
<path d="M2644 574 c-18 -14 -18 -15 4 -4 12 6 22 13 22 15 0 8 -5 6 -26 -11z"/>
<path d="M2675 569 c-4 -6 -5 -12 -2 -15 2 -3 7 2 10 11 7 17 1 20 -8 4z"/>
<path d="M2691 550 c0 -8 4 -22 9 -30 12 -18 12 -2 0 25 -6 13 -9 15 -9 5z"/>
<path d="M4614 549 c-8 -14 14 -19 25 -6 8 10 7 14 -5 14 -8 0 -17 -4 -20 -8z"/>
<path d="M2765 532 c-5 -4 -12 -16 -13 -27 -4 -23 0 -20 17 13 12 24 12 26 -4
14z"/>
<path d="M2800 499 c0 -5 5 -7 10 -4 6 3 10 8 10 11 0 2 -4 4 -10 4 -5 0 -10
-5 -10 -11z"/>
<path d="M4545 499 c-4 -6 -4 -13 -1 -16 3 -4 6 -1 6 6 0 7 5 9 12 5 7 -4 8
-3 4 4 -9 15 -13 15 -21 1z"/>
<path d="M2830 480 c0 -5 5 -10 11 -10 5 0 7 5 4 10 -3 6 -8 10 -11 10 -2 0
-4 -4 -4 -10z"/>
<path d="M2913 468 c1 -15 6 -23 11 -18 4 4 4 16 -2 26 -9 16 -10 14 -9 -8z"/>
<path d="M4515 480 c3 -5 8 -10 11 -10 2 0 4 5 4 10 0 6 -5 10 -11 10 -5 0 -7
-4 -4 -10z"/>
<path d="M4590 479 c0 -5 5 -7 10 -4 6 3 10 8 10 11 0 2 -4 4 -10 4 -5 0 -10
-5 -10 -11z"/>
<path d="M2967 471 c6 -7 9 -20 6 -27 -3 -8 -3 -14 0 -14 14 0 14 30 -1 41
-14 11 -15 11 -5 0z"/>
<path d="M4490 466 c0 -2 7 -7 16 -10 8 -3 12 -2 9 4 -6 10 -25 14 -25 6z"/>
<path d="M4433 443 c4 -3 -1 -12 -11 -20 -15 -13 -15 -13 6 -3 19 9 23 30 5
30 -4 0 -3 -3 0 -7z"/>
<path d="M4475 439 c-11 -16 -1 -19 13 -3 7 8 8 14 3 14 -5 0 -13 -5 -16 -11z"/>
<path d="M2998 433 c7 -3 16 -2 19 1 4 3 -2 6 -13 5 -11 0 -14 -3 -6 -6z"/>
<path d="M4377 426 c-4 -10 -3 -15 3 -11 6 3 10 1 10 -6 0 -7 3 -10 6 -6 3 3
2 13 -4 22 -8 16 -9 16 -15 1z"/>
<path d="M3046 422 c-2 -4 9 -7 25 -7 31 -1 30 7 -1 12 -10 1 -21 -1 -24 -5z"/>
<path d="M3135 420 c-3 -5 -1 -10 4 -10 6 0 11 5 11 10 0 6 -2 10 -4 10 -3 0
-8 -4 -11 -10z"/>
<path d="M4330 415 c0 -8 2 -15 4 -15 2 0 6 7 10 15 3 8 1 15 -4 15 -6 0 -10
-7 -10 -15z"/>
<path d="M3150 396 c0 -2 6 -9 14 -15 11 -9 16 -9 22 0 4 8 3 9 -4 5 -7 -4
-12 -2 -12 3 0 6 -4 11 -10 11 -5 0 -10 -2 -10 -4z"/>
<path d="M3240 375 c-14 -8 -20 -14 -14 -15 5 0 19 7 30 15 24 18 16 19 -16 0z"/>
<path d="M3355 380 c-3 -6 1 -7 10 -4 11 5 14 2 9 -12 -5 -15 -4 -16 4 -4 11
15 7 30 -8 30 -5 0 -12 -4 -15 -10z"/>
<path d="M3400 386 c0 -2 8 -10 18 -17 15 -13 16 -12 3 4 -13 16 -21 21 -21
13z"/>
<path d="M3475 381 c-3 -7 0 -8 10 -5 11 5 14 2 9 -10 -3 -9 -2 -16 4 -16 13
0 8 33 -5 37 -6 2 -14 -1 -18 -6z"/>
<path d="M3605 380 c3 -5 11 -10 16 -10 6 0 7 5 4 10 -3 6 -11 10 -16 10 -6 0
-7 -4 -4 -10z"/>
<path d="M3690 380 c0 -5 5 -10 10 -10 6 0 10 5 10 10 0 6 -4 10 -10 10 -5 0
-10 -4 -10 -10z"/>
<path d="M3753 372 c0 -12 5 -22 9 -22 11 0 10 12 -2 30 -7 12 -9 10 -7 -8z"/>
<path d="M3850 380 c0 -5 5 -10 11 -10 5 0 7 5 4 10 -3 6 -8 10 -11 10 -2 0
-4 -4 -4 -10z"/>
<path d="M3930 380 c0 -5 5 -10 10 -10 6 0 10 5 10 10 0 6 -4 10 -10 10 -5 0
-10 -4 -10 -10z"/>
<path d="M3990 380 c0 -5 5 -10 10 -10 6 0 10 5 10 10 0 6 -4 10 -10 10 -5 0
-10 -4 -10 -10z"/>
<path d="M4085 380 c3 -5 11 -10 16 -10 6 0 7 5 4 10 -3 6 -11 10 -16 10 -6 0
-7 -4 -4 -10z"/>
<path d="M4151 372 c-7 -14 -6 -18 9 -18 13 0 16 4 10 12 -6 6 -7 14 -3 17 3
4 3 7 0 7 -3 0 -11 -8 -16 -18z"/>
<path d="M4185 381 c-3 -5 -2 -12 3 -15 5 -3 9 1 9 9 0 17 -3 19 -12 6z"/>
<path d="M4210 380 c0 -5 5 -10 11 -10 5 0 7 5 4 10 -3 6 -8 10 -11 10 -2 0
-4 -4 -4 -10z"/>
<path d="M3667 367 c-3 -8 1 -14 8 -14 7 0 11 6 8 14 -3 7 -6 13 -8 13 -2 0
-5 -6 -8 -13z"/>
<path d="M3907 367 c-3 -8 1 -14 8 -14 7 0 11 6 8 14 -3 7 -6 13 -8 13 -2 0
-5 -6 -8 -13z"/>
<path d="M3275 360 c3 -5 8 -10 11 -10 2 0 4 5 4 10 0 6 -5 10 -11 10 -5 0 -7
-4 -4 -10z"/>
<path d="M3440 366 c0 -2 7 -7 16 -10 8 -3 12 -2 9 4 -6 10 -25 14 -25 6z"/>
<path d="M3535 360 c-3 -5 -1 -10 4 -10 6 0 11 5 11 10 0 6 -2 10 -4 10 -3 0
-8 -4 -11 -10z"/>
<path d="M4015 360 c-3 -5 -1 -10 4 -10 6 0 11 5 11 10 0 6 -2 10 -4 10 -3 0
-8 -4 -11 -10z"/>
</g>
</svg>
